<svg width="80" height="80" viewBox="0 0 80 80" fill="none" xmlns="http://www.w3.org/2000/svg">
<path d="M15 0H0V10H10V60H50C66.5685 60 80 46.5685 80 30V10H25C25 4.47716 20.5229 0 15 0Z" fill="white"/>
<path d="M25 72.5C25 76.642 21.6421 80 17.5 80C13.3579 80 10 76.642 10 72.5C10 68.358 13.3579 65 17.5 65C21.6421 65 25 68.358 25 72.5Z" fill="white"/>
<path d="M37.5 80C41.6421 80 45 76.642 45 72.5C45 68.358 41.6421 65 37.5 65C33.3579 65 30 68.358 30 72.5C30 76.642 33.3579 80 37.5 80Z" fill="white"/>
</svg>
