<svg width="85" height="84" viewBox="0 0 85 84" fill="none" xmlns="http://www.w3.org/2000/svg">
<path d="M83.3764 33.9999H80.0202V33.827H42.5202V50.4937H66.0681C62.6327 60.1957 53.4014 67.1603 42.5202 67.1603C28.7139 67.1603 17.5202 55.9666 17.5202 42.1603C17.5202 28.3541 28.7139 17.1603 42.5202 17.1603C48.8931 17.1603 54.691 19.5645 59.1056 23.4916L70.891 11.7062C63.4493 4.77074 53.4952 0.493652 42.5202 0.493652C19.5098 0.493652 0.853516 19.1499 0.853516 42.1603C0.853516 65.1707 19.5098 83.827 42.5202 83.827C65.5306 83.827 84.1868 65.1707 84.1868 42.1603C84.1868 39.3666 83.8993 36.6395 83.3764 33.9999Z" fill="#FFC107"/>
<path d="M5.65625 22.7666L19.3458 32.8062C23.05 23.6353 32.0208 17.1603 42.5187 17.1603C48.8917 17.1603 54.6896 19.5645 59.1042 23.4916L70.8896 11.7062C63.4479 4.77074 53.4937 0.493652 42.5187 0.493652C26.5146 0.493652 12.6354 9.52907 5.65625 22.7666Z" fill="#FF3D00"/>
<path d="M42.5195 83.8268C53.282 83.8268 63.0612 79.708 70.4549 73.0101L57.5591 62.0976C53.3758 65.2664 48.1758 67.1601 42.5195 67.1601C31.682 67.1601 22.4799 60.2497 19.0133 50.606L5.42578 61.0747C12.3216 74.5685 26.3258 83.8268 42.5195 83.8268Z" fill="#4CAF50"/>
<path d="M83.3758 33.9996H80.0195V33.8267H42.5195V50.4933H66.0674C64.4175 55.1537 61.4195 59.1725 57.5529 62.0996L57.5591 62.0954L70.4549 73.0079C69.5424 73.8371 84.1862 62.9933 84.1862 42.16C84.1862 39.3662 83.8987 36.6392 83.3758 33.9996Z" fill="#1976D2"/>
</svg>
