<svg width="80" height="80" viewBox="0 0 80 80" fill="none" xmlns="http://www.w3.org/2000/svg">
<path d="M23.3268 0C10.4635 0 0 10.4732 0 23.3398V56.6732C0 69.5365 10.4732 80 23.3398 80H56.6732C69.5365 80 80 69.5268 80 56.6602V23.3268C80 10.4635 69.5268 0 56.6602 0H23.3268ZM63.3333 13.3333C65.1733 13.3333 66.6667 14.8267 66.6667 16.6667C66.6667 18.5067 65.1733 20 63.3333 20C61.4933 20 60 18.5067 60 16.6667C60 14.8267 61.4933 13.3333 63.3333 13.3333ZM40 20C51.03 20 60 28.97 60 40C60 51.03 51.03 60 40 60C28.97 60 20 51.03 20 40C20 28.97 28.97 20 40 20ZM40 26.6667C36.4638 26.6667 33.0724 28.0714 30.5719 30.5719C28.0714 33.0724 26.6667 36.4638 26.6667 40C26.6667 43.5362 28.0714 46.9276 30.5719 49.4281C33.0724 51.9286 36.4638 53.3333 40 53.3333C43.5362 53.3333 46.9276 51.9286 49.4281 49.4281C51.9286 46.9276 53.3333 43.5362 53.3333 40C53.3333 36.4638 51.9286 33.0724 49.4281 30.5719C46.9276 28.0714 43.5362 26.6667 40 26.6667Z" fill="white"/>
</svg>
