<svg width="75" height="75" viewBox="0 0 75 75" fill="none" xmlns="http://www.w3.org/2000/svg">
<path fill-rule="evenodd" clip-rule="evenodd" d="M74.25 4.16667C74.25 3.0616 73.8154 2.00179 73.0418 1.22039C72.2682 0.438987 71.219 0 70.125 0H49.5C48.406 0 47.3568 0.438987 46.5832 1.22039C45.8096 2.00179 45.375 3.0616 45.375 4.16667C45.375 5.27174 45.8096 6.33154 46.5832 7.11295C47.3568 7.89435 48.406 8.33333 49.5 8.33333H60.1672L51.4635 17.125C53.7199 18.7417 55.6958 20.7375 57.3004 23.0125L66 14.225V25C66 26.1051 66.4346 27.1649 67.2082 27.9463C67.9818 28.7277 69.031 29.1667 70.125 29.1667C71.219 29.1667 72.2682 28.7277 73.0418 27.9463C73.8154 27.1649 74.25 26.1051 74.25 25V4.16667ZM51.4635 17.125C47.2775 14.1095 42.2665 12.4923 37.125 12.5H8.25C6.06196 12.5 3.96354 13.378 2.41637 14.9408C0.869194 16.5036 0 18.6232 0 20.8333V66.6667C0 68.8768 0.869194 70.9964 2.41637 72.5592C3.96354 74.122 6.06196 75 8.25 75H53.625C55.813 75 57.9115 74.122 59.4586 72.5592C61.0058 70.9964 61.875 68.8768 61.875 66.6667V37.5C61.875 32.1 60.1879 27.1 57.3004 23.0125L31.7914 48.7792C31.0134 49.5382 29.9714 49.9581 28.8898 49.9486C27.8083 49.9392 26.7737 49.5009 26.0089 48.7284C25.2441 47.9559 24.8102 46.9108 24.8008 45.8183C24.7914 44.7259 25.2072 43.6733 25.9586 42.8875L51.4635 17.125Z" fill="white"/>
</svg>
