<svg width="1880" height="365" viewBox="0 0 1880 365" fill="none" xmlns="http://www.w3.org/2000/svg">
<path d="M72.7641 69.6V232H6.64406V69.6H72.7641ZM219.024 232H137.824C126.224 232 116.673 231.227 109.172 229.68C101.67 228.056 95.7544 225.465 91.4238 221.908C87.0931 218.273 84.0771 213.479 82.3758 207.524C80.6744 201.569 79.8238 194.261 79.8238 185.6V116C79.8238 107.261 80.6744 99.8373 82.3758 93.728C84.0771 87.5413 87.0931 82.5147 91.4238 78.648C95.7544 74.704 101.67 71.8427 109.172 70.064C116.673 68.208 126.224 67.28 137.824 67.28H161.024C172.624 67.28 182.174 68.208 189.676 70.064C197.177 71.8427 203.093 74.704 207.424 78.648C211.754 82.5147 214.77 87.5413 216.472 93.728C218.173 99.8373 219.024 107.261 219.024 116V147.32H152.904V116H145.944V185.6H152.904V154.28H219.024V232ZM325.601 232C320.729 232 316.514 231.613 312.957 230.84C309.399 230.067 306.345 228.907 303.793 227.36C301.318 225.813 299.269 223.841 297.645 221.444C296.098 219.047 294.861 216.185 293.933 212.86L281.173 165.3L274.677 167.04L292.077 232H225.957V69.6H265.513C270.385 69.6 274.599 69.9867 278.157 70.76C281.714 71.456 284.73 72.616 287.205 74.24C289.757 75.7867 291.806 77.7587 293.353 80.156C294.977 82.5533 296.253 85.4147 297.181 88.74L309.941 136.3L316.437 134.56L299.037 69.6H365.157V232H325.601ZM438.209 69.6V232H372.089V69.6H438.209ZM584.469 121.8H547.929V232H481.809V121.8H445.269V69.6H584.469V121.8ZM707.402 179.8V232H591.402V69.6H707.402V121.8H657.522V128.76H702.762V172.84H657.522V179.8H707.402ZM900.071 121.8H863.531V232H797.411V121.8H760.871V69.6H900.071V121.8ZM907.003 69.6H973.123V127.6H980.083V69.6H1046.2V232H980.083V174H973.123V232H907.003V69.6ZM1169.14 179.8V232H1053.14V69.6H1169.14V121.8H1119.26V128.76H1164.5V172.84H1119.26V179.8H1169.14ZM1322.25 232C1317.38 232 1313.16 231.613 1309.61 230.84C1306.05 230.067 1302.99 228.907 1300.44 227.36C1297.97 225.813 1295.92 223.841 1294.29 221.444C1292.75 219.047 1291.51 216.185 1290.58 212.86L1277.82 165.3L1271.33 167.04L1288.73 232H1222.61V69.6H1262.16C1267.03 69.6 1271.25 69.9867 1274.81 70.76C1278.36 71.456 1281.38 72.616 1283.85 74.24C1286.41 75.7867 1288.45 77.7587 1290 80.156C1291.63 82.5533 1292.9 85.4147 1293.83 88.74L1306.59 136.3L1313.09 134.56L1295.69 69.6H1361.81V232H1322.25ZM1434.86 69.6V232H1368.74V69.6H1434.86ZM1581.12 232H1499.92C1488.32 232 1478.77 231.227 1471.27 229.68C1463.76 228.056 1457.85 225.465 1453.52 221.908C1449.19 218.273 1446.17 213.479 1444.47 207.524C1442.77 201.569 1441.92 194.261 1441.92 185.6V116C1441.92 107.261 1442.77 99.8373 1444.47 93.728C1446.17 87.5413 1449.19 82.5147 1453.52 78.648C1457.85 74.704 1463.76 71.8427 1471.27 70.064C1478.77 68.208 1488.32 67.28 1499.92 67.28H1523.12C1534.72 67.28 1544.27 68.208 1551.77 70.064C1559.27 71.8427 1565.19 74.704 1569.52 78.648C1573.85 82.5147 1576.86 87.5413 1578.57 93.728C1580.27 99.8373 1581.12 107.261 1581.12 116V147.32H1515V116H1508.04V185.6H1515V154.28H1581.12V232ZM1588.05 69.6H1654.17V127.6H1661.13V69.6H1727.25V232H1661.13V174H1654.17V232H1588.05V69.6ZM1873.38 121.8H1836.84V232H1770.72V121.8H1734.18V69.6H1873.38V121.8Z" fill="white"/>
<path d="M86.5366 312C86.5366 315.92 86.1516 319.227 85.3816 321.922C84.6116 324.617 83.2466 326.787 81.2866 328.432C79.3266 330.042 76.6491 331.215 73.2541 331.95C69.8591 332.65 65.5366 333 60.2866 333H30.3616C25.1116 333 20.7891 332.65 17.3941 331.95C13.9991 331.215 11.3216 330.042 9.36162 328.432C7.40162 326.787 6.03662 324.617 5.26662 321.922C4.49662 319.227 4.11162 315.92 4.11162 312V259.5H30.3616V312H33.5116V259.5H57.1366V312H60.2866V259.5H86.5366V312ZM119.657 259.5V333H89.7317V259.5H119.657ZM185.852 283.125H169.314V333H139.389V283.125H122.852V259.5H185.852V283.125ZM188.99 259.5H218.915V285.75H222.065V259.5H251.99V333H222.065V306.75H218.915V333H188.99V259.5ZM918.231 333H888.306V259.5H925.056C930.306 259.5 934.628 259.867 938.023 260.602C941.418 261.302 944.096 262.475 946.056 264.12C948.016 265.73 949.381 267.882 950.151 270.577C950.921 273.237 951.306 276.545 951.306 280.5C951.306 283.125 951.008 285.382 950.413 287.272C949.853 289.162 949.031 290.72 947.946 291.945C946.861 293.135 945.531 294.027 943.956 294.622C942.416 295.182 940.666 295.462 938.706 295.462V297.037C940.666 297.037 942.416 297.335 943.956 297.93C945.531 298.49 946.861 299.382 947.946 300.607C949.031 301.797 949.853 303.337 950.413 305.227C951.008 307.117 951.306 309.375 951.306 312V333H921.381V302.812H918.231V333ZM918.231 289.687H921.381V275.25H918.231V289.687ZM954.444 259.5H984.369V285.75H987.519V259.5H1017.44V333H987.519V306.75H984.369V333H954.444V259.5ZM1020.58 259.5H1050.51V296.775H1053.66V259.5H1083.58V296.775C1083.58 300.03 1083.32 302.847 1082.79 305.227C1082.3 307.607 1081.43 309.62 1080.17 311.265C1078.91 312.91 1077.21 314.222 1075.08 315.202C1072.98 316.147 1070.3 316.83 1067.04 317.25V333H1037.12V317.25C1033.86 316.83 1031.17 316.147 1029.03 315.202C1026.93 314.222 1025.25 312.91 1023.99 311.265C1022.73 309.62 1021.84 307.607 1021.32 305.227C1020.83 302.847 1020.58 300.03 1020.58 296.775V259.5ZM1149.72 283.125H1133.18V333H1103.26V283.125H1086.72V259.5H1149.72V283.125ZM1152.86 259.5H1182.78V285.75H1185.93V259.5H1215.86V333H1185.93V306.75H1182.78V333H1152.86V259.5ZM1245.24 259.5H1275.17C1280.42 259.5 1284.74 259.867 1288.14 260.602C1291.53 261.302 1294.21 262.475 1296.17 264.12C1298.13 265.73 1299.49 267.882 1300.26 270.577C1301.03 273.237 1301.42 276.545 1301.42 280.5V333H1275.17V280.5H1272.02V333H1248.39V280.5H1245.24V333H1218.99V280.5C1218.99 276.545 1219.38 273.237 1220.15 270.577C1220.92 267.882 1222.28 265.73 1224.24 264.12C1226.2 262.475 1228.88 261.302 1232.28 260.602C1235.67 259.867 1239.99 259.5 1245.24 259.5ZM1334.54 283.125V286.275H1352.91C1355.54 286.275 1357.78 286.52 1359.63 287.01C1361.49 287.465 1363.01 288.2 1364.2 289.215C1365.39 290.23 1366.25 291.542 1366.77 293.152C1367.33 294.727 1367.61 296.635 1367.61 298.875V312C1367.61 315.92 1367.23 319.227 1366.46 321.922C1365.69 324.617 1364.32 326.787 1362.36 328.432C1360.4 330.042 1357.73 331.215 1354.33 331.95C1350.94 332.65 1346.61 333 1341.36 333H1304.61V309.375H1337.69V306.225H1319.31C1316.69 306.225 1314.45 305.997 1312.59 305.542C1310.74 305.052 1309.22 304.3 1308.03 303.285C1306.84 302.27 1305.96 300.975 1305.4 299.4C1304.88 297.79 1304.61 295.865 1304.61 293.625V280.5C1304.61 276.545 1305 273.237 1305.77 270.577C1306.54 267.882 1307.9 265.73 1309.86 264.12C1311.82 262.475 1314.5 261.302 1317.9 260.602C1321.29 259.867 1325.61 259.5 1330.86 259.5H1365.51V283.125H1334.54ZM1421.7 259.5V333H1391.77V259.5H1421.7ZM1469.99 333C1467.79 333 1465.88 332.825 1464.27 332.475C1462.66 332.125 1461.28 331.6 1460.12 330.9C1459 330.2 1458.07 329.307 1457.34 328.222C1456.64 327.137 1456.08 325.842 1455.66 324.337L1449.88 302.812L1446.94 303.6L1454.82 333H1424.89V259.5H1442.8C1445 259.5 1446.91 259.675 1448.52 260.025C1450.13 260.34 1451.49 260.865 1452.61 261.6C1453.77 262.3 1454.7 263.192 1455.4 264.277C1456.13 265.362 1456.71 266.657 1457.13 268.162L1462.9 289.687L1465.84 288.9L1457.97 259.5H1487.89V333H1469.99Z" fill="white"/>
<path d="M306.073 333H276.148V280.5C276.148 276.545 276.533 273.185 277.303 270.42C278.073 267.62 279.438 265.345 281.398 263.595C283.358 261.81 286.035 260.515 289.43 259.71C292.825 258.87 297.148 258.45 302.398 258.45H312.898C318.148 258.45 322.47 258.87 325.865 259.71C329.26 260.515 331.938 261.81 333.898 263.595C335.858 265.345 337.223 267.62 337.993 270.42C338.763 273.185 339.148 276.545 339.148 280.5V333H309.223V302.812H306.073V333ZM306.073 289.687H309.223V275.25H306.073V289.687ZM342.285 333V259.5H394.785V283.125H372.21V286.275H392.685V306.225H372.21V333H342.285ZM427.889 333H397.964V259.5H434.714C439.964 259.5 444.287 259.867 447.682 260.602C451.077 261.302 453.754 262.475 455.714 264.12C457.674 265.73 459.039 267.882 459.809 270.577C460.579 273.237 460.964 276.545 460.964 280.5C460.964 283.125 460.667 285.382 460.072 287.272C459.512 289.162 458.689 290.72 457.604 291.945C456.519 293.135 455.189 294.027 453.614 294.622C452.074 295.182 450.324 295.462 448.364 295.462V297.037C450.324 297.037 452.074 297.335 453.614 297.93C455.189 298.49 456.519 299.382 457.604 300.607C458.689 301.797 459.512 303.337 460.072 305.227C460.667 307.117 460.964 309.375 460.964 312V333H431.039V302.812H427.889V333ZM427.889 289.687H431.039V275.25H427.889V289.687ZM527.102 312C527.102 315.92 526.717 319.28 525.947 322.08C525.177 324.88 523.812 327.172 521.852 328.957C519.892 330.707 517.214 332.002 513.819 332.842C510.424 333.648 506.102 334.05 500.852 334.05H490.352C485.102 334.05 480.779 333.648 477.384 332.842C473.989 332.002 471.312 330.707 469.352 328.957C467.392 327.172 466.027 324.88 465.257 322.08C464.487 319.28 464.102 315.92 464.102 312V280.5C464.102 276.545 464.487 273.185 465.257 270.42C466.027 267.62 467.392 265.345 469.352 263.595C471.312 261.81 473.989 260.515 477.384 259.71C480.779 258.87 485.102 258.45 490.352 258.45H500.852C506.102 258.45 510.424 258.87 513.819 259.71C517.214 260.515 519.892 261.81 521.852 263.595C523.812 265.345 525.177 267.62 525.947 270.42C526.717 273.185 527.102 276.545 527.102 280.5V312ZM497.177 280.5H494.027V312H497.177V280.5ZM530.24 306.225V286.275H582.74V306.225H530.24ZM632.643 309.375V333H585.918V259.5H615.843V309.375H632.643ZM665.677 333H635.752V280.5C635.752 276.545 636.137 273.185 636.907 270.42C637.677 267.62 639.042 265.345 641.002 263.595C642.962 261.81 645.64 260.515 649.035 259.71C652.43 258.87 656.752 258.45 662.002 258.45H672.502C677.752 258.45 682.075 258.87 685.47 259.71C688.865 260.515 691.542 261.81 693.502 263.595C695.462 265.345 696.827 267.62 697.597 270.42C698.367 273.185 698.752 276.545 698.752 280.5V333H668.827V302.812H665.677V333ZM665.677 289.687H668.827V275.25H665.677V289.687ZM764.89 283.125H748.352V333H718.427V283.125H701.89V259.5H764.89V283.125ZM797.953 259.5V333H768.028V259.5H797.953ZM846.245 333C844.04 333 842.133 332.825 840.523 332.475C838.913 332.125 837.53 331.6 836.375 330.9C835.255 330.2 834.328 329.307 833.593 328.222C832.893 327.137 832.333 325.842 831.913 324.337L826.138 302.812L823.198 303.6L831.073 333H801.148V259.5H819.05C821.255 259.5 823.163 259.675 824.773 260.025C826.383 260.34 827.748 260.865 828.868 261.6C830.023 262.3 830.95 263.192 831.65 264.277C832.385 265.362 832.963 266.657 833.383 268.162L839.158 289.687L842.098 288.9L834.223 259.5H864.148V333H846.245Z" fill="url(#paint0_linear_85_114)"/>
<path d="M1538.3 259.5H1568.23C1573.48 259.5 1577.8 259.867 1581.19 260.602C1584.59 261.302 1587.27 262.475 1589.23 264.12C1591.19 265.73 1592.55 267.882 1593.32 270.577C1594.09 273.237 1594.48 276.545 1594.48 280.5V333H1568.23V280.5H1565.08V333H1541.45V280.5H1538.3V333H1512.05V280.5C1512.05 276.545 1512.44 273.237 1513.21 270.577C1513.98 267.882 1515.34 265.73 1517.3 264.12C1519.26 262.475 1521.94 261.302 1525.33 260.602C1528.73 259.867 1533.05 259.5 1538.3 259.5ZM1627.6 333H1597.67V280.5C1597.67 276.545 1598.06 273.185 1598.83 270.42C1599.6 267.62 1600.96 265.345 1602.92 263.595C1604.88 261.81 1607.56 260.515 1610.95 259.71C1614.35 258.87 1618.67 258.45 1623.92 258.45H1634.42C1639.67 258.45 1643.99 258.87 1647.39 259.71C1650.78 260.515 1653.46 261.81 1655.42 263.595C1657.38 265.345 1658.75 267.62 1659.52 270.42C1660.29 273.185 1660.67 276.545 1660.67 280.5V333H1630.75V302.812H1627.6V333ZM1627.6 289.687H1630.75V275.25H1627.6V289.687ZM1708.91 333C1706.7 333 1704.79 332.825 1703.18 332.475C1701.57 332.125 1700.19 331.6 1699.04 330.9C1697.92 330.2 1696.99 329.307 1696.25 328.222C1695.55 327.137 1694.99 325.842 1694.57 324.337L1688.8 302.812L1685.86 303.6L1693.73 333H1663.81V259.5H1681.71C1683.92 259.5 1685.82 259.675 1687.43 260.025C1689.04 260.34 1690.41 260.865 1691.53 261.6C1692.68 262.3 1693.61 263.192 1694.31 264.277C1695.05 265.362 1695.62 266.657 1696.04 268.162L1701.82 289.687L1704.76 288.9L1696.88 259.5H1726.81V333H1708.91ZM1759.87 259.5V333H1729.95V259.5H1759.87ZM1809.79 309.375V333H1763.07V259.5H1792.99V309.375H1809.79ZM1842.83 333H1812.9V280.5C1812.9 276.545 1813.29 273.185 1814.06 270.42C1814.83 267.62 1816.19 265.345 1818.15 263.595C1820.11 261.81 1822.79 260.515 1826.18 259.71C1829.58 258.87 1833.9 258.45 1839.15 258.45H1849.65C1854.9 258.45 1859.22 258.87 1862.62 259.71C1866.01 260.515 1868.69 261.81 1870.65 263.595C1872.61 265.345 1873.98 267.62 1874.75 270.42C1875.52 273.185 1875.9 276.545 1875.9 280.5V333H1845.98V302.812H1842.83V333ZM1842.83 289.687H1845.98V275.25H1842.83V289.687Z" fill="url(#paint1_linear_85_114)"/>
<defs>
<linearGradient id="paint0_linear_85_114" x1="1.92338e-07" y1="365" x2="1882.28" y2="276.33" gradientUnits="userSpaceOnUse">
<stop offset="0.14" stop-color="#D4AF37"/>
<stop offset="1" stop-color="#E0CA82"/>
</linearGradient>
<linearGradient id="paint1_linear_85_114" x1="0" y1="365" x2="1882.28" y2="276.33" gradientUnits="userSpaceOnUse">
<stop offset="0.748907" stop-color="#D4AF37"/>
<stop offset="1" stop-color="#E0CA82"/>
</linearGradient>
</defs>
</svg>
