<svg width="64" height="76" viewBox="0 0 64 76" fill="none" xmlns="http://www.w3.org/2000/svg">
<path d="M62.3582 23.8211C64.1625 27.0593 64.3995 31.2301 63.46 36.0581C60.7429 50.0522 51.441 54.8865 39.5615 54.8865H37.7271C36.2769 54.8865 35.0416 55.9482 34.8141 57.3849L34.6652 58.1962L32.356 72.879L32.2364 73.5041C32.009 74.9409 30.7737 76 29.3234 76H17.0598C15.9714 76 15.1398 75.0266 15.3086 73.9502L15.951 69.8709H21.5225L25.0054 47.7303H30.0887C47.2513 47.7303 58.5192 39.6307 62.3582 23.8211ZM51.4961 5.10366C54.2942 8.29753 55.1069 11.7637 54.259 17.1854C54.1886 17.6367 54.1134 18.0705 54.0301 18.5067C51.3328 32.3822 42.6987 38.5367 28.5115 38.5367H21.5971C19.2837 38.5367 17.2923 40.0573 16.6321 42.2207L16.5786 42.2123L13.1686 63.8888H0.188501C0.0719074 63.8888 -0.015886 63.7862 0.00242126 63.6693L9.53421 2.9505C9.80089 1.25164 11.2614 0 12.9772 0H34.9C42.9082 0 48.5361 1.72357 51.4961 5.10366Z" fill="white"/>
</svg>
