<svg width="92" height="92" viewBox="0 0 92 92" fill="none" xmlns="http://www.w3.org/2000/svg">
<path d="M46.0003 0C20.6363 0 0.000296847 20.636 0.000296847 46C0.000296847 53.92 2.0463 61.708 5.9263 68.58L0.0742967 89.46C-0.117703 90.146 0.068297 90.882 0.564297 91.392C0.946297 91.786 1.4663 92 2.0003 92C2.1603 92 2.3223 91.98 2.4803 91.942L24.2723 86.544C30.9263 90.116 38.4203 92 46.0003 92C71.3643 92 92.0003 71.364 92.0003 46C92.0003 20.636 71.3643 0 46.0003 0ZM69.1403 62.232C68.1563 64.956 63.4363 67.442 61.1683 67.776C59.1323 68.074 56.5563 68.202 53.7283 67.314C52.0143 66.774 49.8143 66.058 46.9963 64.856C35.1503 59.804 27.4143 48.026 26.8223 47.248C26.2323 46.47 22.0003 40.926 22.0003 35.188C22.0003 29.45 25.0503 26.628 26.1343 25.46C27.2183 24.292 28.4963 24 29.2843 24C30.0723 24 30.8583 24.01 31.5483 24.042C32.2743 24.078 33.2483 23.768 34.2063 26.044C35.1903 28.38 37.5523 34.118 37.8443 34.704C38.1403 35.288 38.3363 35.97 37.9443 36.748C37.5523 37.526 37.3563 38.012 36.7643 38.694C36.1723 39.376 35.5243 40.214 34.9923 40.738C34.4003 41.32 33.7863 41.95 34.4743 43.118C35.1623 44.286 37.5323 48.104 41.0443 51.196C45.5543 55.168 49.3603 56.4 50.5403 56.984C51.7203 57.568 52.4103 57.47 53.0983 56.692C53.7863 55.912 56.0503 53.286 56.8363 52.12C57.6223 50.954 58.4103 51.146 59.4943 51.536C60.5783 51.924 66.3843 54.744 67.5643 55.328C68.7443 55.912 69.5323 56.204 69.8283 56.69C70.1243 57.174 70.1243 59.51 69.1403 62.232Z" fill="white"/>
</svg>
